<?xml version="1.0" encoding="UTF-8" standalone="no"?>
<svg
   version="1.1"
   viewBox="0 0 330 330"
   sodipodi:docname="check.svg"
   inkscape:version="1.1 (c4e8f9e, 2021-05-24)"
   id="svg125"
   xmlns:inkscape="http://www.inkscape.org/namespaces/inkscape"
   xmlns:sodipodi="http://sodipodi.sourceforge.net/DTD/sodipodi-0.dtd"
   xmlns="http://www.w3.org/2000/svg"
   xmlns:svg="http://www.w3.org/2000/svg">
  <defs
     id="defs17" />
  <sodipodi:namedview
     id="namedview15"
     pagecolor="#ffffff"
     bordercolor="#666666"
     borderopacity="1.0"
     inkscape:pageshadow="2"
     inkscape:pageopacity="0.0"
     inkscape:pagecheckerboard="0"
     showgrid="false"
     inkscape:zoom="1.8939394"
     inkscape:cx="165.264"
     inkscape:cy="165"
     inkscape:window-width="1399"
     inkscape:window-height="847"
     inkscape:window-x="0"
     inkscape:window-y="25"
     inkscape:window-maximized="0" />
  <path
     d="M165,0C74.019,0,0,74.019,0,165s74.019,165,165,165s165-74.019,165-165S255.981,0,165,0z M165,300   c-74.44,0-135-60.561-135-135S90.56,30,165,30s135,60.561,135,135S239.439,300,165,300z"
     id="path9" />
  <path
     d="m226.87 106.66-84.854 84.853-38.89-38.891c-5.857-5.857-15.355-5.858-21.213-1e-3 -5.858 5.858-5.858 15.355 0 21.213l49.496 49.498c2.813 2.813 6.628 4.394 10.606 4.394h1e-3c3.978 0 7.793-1.581 10.606-4.393l95.461-95.459c5.858-5.858 5.858-15.355 0-21.213s-15.355-5.859-21.213-1e-3z"
     id="path11" />
</svg>
